<svg width="16.000000" height="16.000000" viewBox="0 0 16 16" fill="none" xmlns="http://www.w3.org/2000/svg" xmlns:xlink="http://www.w3.org/1999/xlink">
	<desc>
			Created with Pixso.
	</desc>
	<defs/>
	<path id="" d="M0.86 3.05Q1.17 3.17 1.52 3.17Q1.87 3.17 2.17 3.05Q2.55 2.91 2.85 2.6Q3.16 2.3 3.3 1.92Q3.42 1.62 3.42 1.27Q3.42 0.92 3.3 0.61Q3.16 0.24 2.85 -0.07Q2.55 -0.38 2.17 -0.52Q1.87 -0.63 1.52 -0.63Q1.17 -0.63 0.86 -0.52Q0.49 -0.38 0.18 -0.07Q-0.13 0.24 -0.27 0.61Q-0.38 0.92 -0.38 1.27Q-0.38 1.62 -0.27 1.92Q-0.13 2.3 0.18 2.6Q0.49 2.91 0.86 3.05ZM12.1 15.12L15.37 15.12L15.37 9.35Q15.37 6.93 14.67 5.77Q14.48 5.47 14.23 5.23Q13.28 4.33 11.47 4.33Q10.57 4.33 9.85 4.69Q9.67 4.78 9.5 4.89Q8.81 5.3 8.45 5.91Q8.41 5.98 8.37 6.05L8.34 6.05L8.34 4.61L5.21 4.61L5.21 15.12L8.44 15.12L8.44 9.92Q8.44 8.69 8.8 8.05Q8.96 7.76 9.2 7.57Q9.65 7.21 10.38 7.21Q11.02 7.21 11.43 7.52Q11.72 7.76 11.89 8.16Q12.1 8.72 12.1 9.99L12.1 15.12ZM-0.13 15.12L3.14 15.12L3.14 4.61L-0.13 4.61L-0.13 15.12Z" fill="#292F36" fill-opacity="1.000000" fill-rule="evenodd"/>
</svg>
