<svg width="18.000000" height="15.000000" viewBox="0 0 18 15" fill="none" xmlns="http://www.w3.org/2000/svg" xmlns:xlink="http://www.w3.org/1999/xlink">
	<desc>
			Created with Pixso.
	</desc>
	<defs/>
	<path id="" d="M15.67 4.05Q15.67 3.73 15.63 3.59Q16.12 3.23 16.54 2.81Q17.07 2.28 17.5 1.66Q16.44 2.11 15.39 2.25Q16.05 1.84 16.48 1.26Q16.82 0.79 17 0.21Q16.68 0.4 16.35 0.55Q15.54 0.92 14.65 1.09Q14.44 0.88 14.2 0.7Q13.85 0.44 13.43 0.25Q13.34 0.21 13.24 0.17Q12.64 -0.07 11.94 -0.07Q11.42 -0.07 10.94 0.07Q10.51 0.19 10.11 0.42Q9.74 0.64 9.43 0.93Q9.05 1.3 8.78 1.78Q8.52 2.23 8.39 2.72Q8.28 3.16 8.28 3.62Q8.28 4.05 8.35 4.47Q7.12 4.41 5.96 4.08Q5.01 3.8 4.12 3.34Q2.97 2.75 2.02 1.93Q1.34 1.33 0.76 0.6Q0.39 1.22 0.28 1.88Q0.23 2.16 0.23 2.45Q0.23 3.08 0.43 3.64Q0.53 3.94 0.69 4.22Q0.98 4.73 1.37 5.12Q1.61 5.36 1.89 5.56Q1.52 5.54 1.18 5.46Q0.69 5.33 0.23 5.07L0.23 5.14Q0.23 5.74 0.41 6.28Q0.62 6.91 1.08 7.46Q1.54 8.02 2.13 8.35Q2.62 8.63 3.19 8.76Q2.69 8.86 2.2 8.86Q1.89 8.86 1.53 8.83Q1.68 9.28 1.93 9.68Q2.28 10.22 2.82 10.64Q3.19 10.92 3.6 11.1Q4.24 11.36 4.98 11.36Q3.93 12.17 2.75 12.57Q1.62 12.94 0.37 12.94Q-0.12 12.94 -0.5 12.91Q0.67 13.66 1.95 14.07Q3.48 14.56 5.16 14.56Q7.51 14.56 9.48 13.68Q10.21 13.35 10.89 12.91Q11.79 12.32 12.54 11.57Q13.67 10.44 14.44 8.93Q15.31 7.26 15.56 5.49Q15.67 4.77 15.67 4.05Z" fill="#292F36" fill-opacity="1.000000" fill-rule="evenodd"/>
</svg>
