<svg width="73.000000" height="55.000000" viewBox="0 0 73 55" fill="none" xmlns="http://www.w3.org/2000/svg" xmlns:xlink="http://www.w3.org/1999/xlink">
	<desc>
			Created with Pixso.
	</desc>
	<defs/>
	<path id="“" d="M65.24 1.42Q62.03 -0.4 57.79 -0.4C53.53 -0.4 50.09 1.03 47.49 3.89C44.89 6.76 43.58 10.32 43.58 14.59C43.58 16.87 44.32 19.23 45.78 21.67C47.25 24.14 49.12 26.11 51.4 27.58L57.01 31.77Q56.84 32.19 56.66 32.59Q54.27 37.94 50.27 42.57C47.41 45.92 44.32 48.67 41 50.82L43 54.19Q54.03 48.58 62.19 40.19Q63.06 39.3 63.9 38.37Q68.16 33.67 70.34 28.14Q72.59 22.42 72.59 15.81Q72.59 9.39 69.52 5.24Q69.04 4.59 68.49 3.99Q67.02 2.42 65.24 1.42ZM24.03 1.42Q20.82 -0.4 16.58 -0.4C12.32 -0.4 8.88 1.03 6.28 3.89C3.68 6.76 2.37 10.32 2.37 14.59C2.37 16.87 3.11 19.23 4.57 21.67C6.04 24.14 7.91 26.11 10.19 27.58L15.8 31.77Q15.63 32.19 15.45 32.59Q13.05 37.94 9.06 42.57C6.2 45.92 3.11 48.67 -0.21 50.82L1.79 54.19C9.93 50.05 16.89 44.78 22.69 38.37Q26.95 33.67 29.13 28.14Q31.38 22.42 31.38 15.81Q31.38 9.39 28.31 5.24Q27.83 4.59 27.28 3.99Q25.81 2.42 24.03 1.42Z" fill="#CDA274" fill-opacity="1.000000" fill-rule="evenodd"/>
</svg>
